<mxfile host="app.diagrams.net" agent="Mozilla/5.0 (Windows NT 10.0; Win64; x64) AppleWebKit/537.36 (KHTML, like Gecko) Chrome/131.0.0.0 Safari/537.36 Edg/131.0.0.0" version="25.0.1">
  <diagram name="Page-1" id="nrZ8flM_sY24ld73uj93">
    <mxGraphModel dx="2212" dy="1294" grid="1" gridSize="10" guides="1" tooltips="1" connect="1" arrows="1" fold="1" page="1" pageScale="1" pageWidth="850" pageHeight="1100" math="0" shadow="0">
      <root>
        <mxCell id="0" />
        <mxCell id="1" parent="0" />
        <mxCell id="mO-xAQjlgf0KAZZDHfsd-2" style="edgeStyle=orthogonalEdgeStyle;rounded=0;orthogonalLoop=1;jettySize=auto;html=1;exitX=0.75;exitY=1;exitDx=0;exitDy=0;entryX=0;entryY=0.25;entryDx=0;entryDy=0;" parent="1" source="dr37v-Of7VDJg59vq6-4-1" target="mO-xAQjlgf0KAZZDHfsd-1" edge="1">
          <mxGeometry relative="1" as="geometry" />
        </mxCell>
        <mxCell id="dr37v-Of7VDJg59vq6-4-1" value="Aquarius Pest Control System" style="rounded=1;whiteSpace=wrap;html=1;" parent="1" vertex="1">
          <mxGeometry x="240" y="90" width="110" height="120" as="geometry" />
        </mxCell>
        <mxCell id="dr37v-Of7VDJg59vq6-4-2" value="" style="endArrow=none;html=1;rounded=0;entryX=1;entryY=0.25;entryDx=0;entryDy=0;exitX=0;exitY=0.25;exitDx=0;exitDy=0;" parent="1" source="dr37v-Of7VDJg59vq6-4-1" target="dr37v-Of7VDJg59vq6-4-1" edge="1">
          <mxGeometry width="50" height="50" relative="1" as="geometry">
            <mxPoint x="200" y="150" as="sourcePoint" />
            <mxPoint x="240" y="100" as="targetPoint" />
          </mxGeometry>
        </mxCell>
        <mxCell id="dr37v-Of7VDJg59vq6-4-3" value="0" style="text;html=1;align=center;verticalAlign=middle;whiteSpace=wrap;rounded=0;" parent="1" vertex="1">
          <mxGeometry x="265" y="90" width="60" height="30" as="geometry" />
        </mxCell>
        <mxCell id="dr37v-Of7VDJg59vq6-4-4" value="Customer" style="rounded=0;whiteSpace=wrap;html=1;" parent="1" vertex="1">
          <mxGeometry x="40" y="120" width="120" height="60" as="geometry" />
        </mxCell>
        <mxCell id="dr37v-Of7VDJg59vq6-4-5" value="Proprieter" style="rounded=0;whiteSpace=wrap;html=1;" parent="1" vertex="1">
          <mxGeometry x="450" y="120" width="120" height="60" as="geometry" />
        </mxCell>
        <mxCell id="dr37v-Of7VDJg59vq6-4-6" value="" style="endArrow=classic;html=1;rounded=0;exitX=1;exitY=0.25;exitDx=0;exitDy=0;entryX=0.026;entryY=0.379;entryDx=0;entryDy=0;entryPerimeter=0;" parent="1" source="dr37v-Of7VDJg59vq6-4-4" target="dr37v-Of7VDJg59vq6-4-1" edge="1">
          <mxGeometry width="50" height="50" relative="1" as="geometry">
            <mxPoint x="140" y="230" as="sourcePoint" />
            <mxPoint x="190" y="180" as="targetPoint" />
          </mxGeometry>
        </mxCell>
        <mxCell id="dr37v-Of7VDJg59vq6-4-7" value="" style="endArrow=classic;html=1;rounded=0;exitX=1.014;exitY=0.372;exitDx=0;exitDy=0;exitPerimeter=0;entryX=0;entryY=0.25;entryDx=0;entryDy=0;" parent="1" source="dr37v-Of7VDJg59vq6-4-1" target="dr37v-Of7VDJg59vq6-4-5" edge="1">
          <mxGeometry width="50" height="50" relative="1" as="geometry">
            <mxPoint x="210" y="150" as="sourcePoint" />
            <mxPoint x="260" y="100" as="targetPoint" />
          </mxGeometry>
        </mxCell>
        <mxCell id="dr37v-Of7VDJg59vq6-4-8" value="" style="endArrow=classic;html=1;rounded=0;exitX=0;exitY=0.667;exitDx=0;exitDy=0;exitPerimeter=0;" parent="1" source="dr37v-Of7VDJg59vq6-4-5" edge="1">
          <mxGeometry width="50" height="50" relative="1" as="geometry">
            <mxPoint x="420" y="240" as="sourcePoint" />
            <mxPoint x="350" y="160" as="targetPoint" />
          </mxGeometry>
        </mxCell>
        <mxCell id="dr37v-Of7VDJg59vq6-4-9" value="" style="endArrow=classic;html=1;rounded=0;entryX=1.005;entryY=0.68;entryDx=0;entryDy=0;entryPerimeter=0;exitX=0.014;exitY=0.587;exitDx=0;exitDy=0;exitPerimeter=0;" parent="1" source="dr37v-Of7VDJg59vq6-4-1" target="dr37v-Of7VDJg59vq6-4-4" edge="1">
          <mxGeometry width="50" height="50" relative="1" as="geometry">
            <mxPoint x="250" y="200" as="sourcePoint" />
            <mxPoint x="300" y="150" as="targetPoint" />
          </mxGeometry>
        </mxCell>
        <mxCell id="dr37v-Of7VDJg59vq6-4-10" value="Appoint Schedule" style="text;html=1;align=center;verticalAlign=middle;whiteSpace=wrap;rounded=0;" parent="1" vertex="1">
          <mxGeometry x="170" y="100" width="60" height="30" as="geometry" />
        </mxCell>
        <mxCell id="dr37v-Of7VDJg59vq6-4-11" value="Give Schedule" style="text;html=1;align=center;verticalAlign=middle;whiteSpace=wrap;rounded=0;" parent="1" vertex="1">
          <mxGeometry x="370" y="100" width="60" height="30" as="geometry" />
        </mxCell>
        <mxCell id="dr37v-Of7VDJg59vq6-4-12" value="Appoint Schedule" style="text;html=1;align=center;verticalAlign=middle;whiteSpace=wrap;rounded=0;" parent="1" vertex="1">
          <mxGeometry x="370" y="160" width="60" height="30" as="geometry" />
        </mxCell>
        <mxCell id="dr37v-Of7VDJg59vq6-4-13" value="Perform Service" style="text;html=1;align=center;verticalAlign=middle;whiteSpace=wrap;rounded=0;" parent="1" vertex="1">
          <mxGeometry x="170" y="160" width="60" height="30" as="geometry" />
        </mxCell>
        <mxCell id="mO-xAQjlgf0KAZZDHfsd-4" style="edgeStyle=orthogonalEdgeStyle;rounded=0;orthogonalLoop=1;jettySize=auto;html=1;exitX=0;exitY=0.75;exitDx=0;exitDy=0;entryX=0.25;entryY=1;entryDx=0;entryDy=0;" parent="1" source="mO-xAQjlgf0KAZZDHfsd-1" target="dr37v-Of7VDJg59vq6-4-1" edge="1">
          <mxGeometry relative="1" as="geometry" />
        </mxCell>
        <mxCell id="mO-xAQjlgf0KAZZDHfsd-1" value="Technician" style="rounded=0;whiteSpace=wrap;html=1;" parent="1" vertex="1">
          <mxGeometry x="450" y="240" width="120" height="60" as="geometry" />
        </mxCell>
        <mxCell id="mO-xAQjlgf0KAZZDHfsd-3" value="Give Schedule" style="text;html=1;align=center;verticalAlign=middle;whiteSpace=wrap;rounded=0;" parent="1" vertex="1">
          <mxGeometry x="360" y="220" width="60" height="30" as="geometry" />
        </mxCell>
        <mxCell id="mO-xAQjlgf0KAZZDHfsd-5" value="Accept/Reject Schedule" style="text;html=1;align=center;verticalAlign=middle;whiteSpace=wrap;rounded=0;" parent="1" vertex="1">
          <mxGeometry x="330" y="290" width="60" height="30" as="geometry" />
        </mxCell>
        <mxCell id="mO-xAQjlgf0KAZZDHfsd-6" value="Receive Appointment Schedule" style="rounded=1;whiteSpace=wrap;html=1;" parent="1" vertex="1">
          <mxGeometry x="1020" y="225" width="110" height="120" as="geometry" />
        </mxCell>
        <mxCell id="mO-xAQjlgf0KAZZDHfsd-7" value="" style="endArrow=none;html=1;rounded=0;entryX=1;entryY=0.25;entryDx=0;entryDy=0;exitX=0;exitY=0.25;exitDx=0;exitDy=0;" parent="1" source="mO-xAQjlgf0KAZZDHfsd-6" target="mO-xAQjlgf0KAZZDHfsd-6" edge="1">
          <mxGeometry width="50" height="50" relative="1" as="geometry">
            <mxPoint x="980" y="285" as="sourcePoint" />
            <mxPoint x="1020" y="235" as="targetPoint" />
          </mxGeometry>
        </mxCell>
        <mxCell id="mO-xAQjlgf0KAZZDHfsd-8" value="1.0" style="text;html=1;align=center;verticalAlign=middle;whiteSpace=wrap;rounded=0;" parent="1" vertex="1">
          <mxGeometry x="1045" y="225" width="60" height="30" as="geometry" />
        </mxCell>
        <mxCell id="9PFNCX79VaehlB443Bku-1" style="edgeStyle=orthogonalEdgeStyle;rounded=0;orthogonalLoop=1;jettySize=auto;html=1;exitX=1;exitY=0.5;exitDx=0;exitDy=0;entryX=0;entryY=0.5;entryDx=0;entryDy=0;" parent="1" source="mO-xAQjlgf0KAZZDHfsd-9" target="mO-xAQjlgf0KAZZDHfsd-6" edge="1">
          <mxGeometry relative="1" as="geometry" />
        </mxCell>
        <mxCell id="mO-xAQjlgf0KAZZDHfsd-9" value="Customer" style="rounded=0;whiteSpace=wrap;html=1;" parent="1" vertex="1">
          <mxGeometry x="800" y="255" width="120" height="60" as="geometry" />
        </mxCell>
        <mxCell id="mO-xAQjlgf0KAZZDHfsd-10" style="edgeStyle=orthogonalEdgeStyle;rounded=0;orthogonalLoop=1;jettySize=auto;html=1;exitX=1;exitY=0.25;exitDx=0;exitDy=0;entryX=0.018;entryY=0.383;entryDx=0;entryDy=0;entryPerimeter=0;" parent="1" source="mO-xAQjlgf0KAZZDHfsd-9" target="mO-xAQjlgf0KAZZDHfsd-6" edge="1">
          <mxGeometry relative="1" as="geometry" />
        </mxCell>
        <mxCell id="mO-xAQjlgf0KAZZDHfsd-11" value="Appoint Schedule" style="text;html=1;align=center;verticalAlign=middle;whiteSpace=wrap;rounded=0;" parent="1" vertex="1">
          <mxGeometry x="940" y="235" width="60" height="30" as="geometry" />
        </mxCell>
        <mxCell id="mO-xAQjlgf0KAZZDHfsd-12" value="A1" style="html=1;dashed=0;whiteSpace=wrap;shape=mxgraph.dfd.dataStoreID;align=left;spacingLeft=3;points=[[0,0],[0.5,0],[1,0],[0,0.5],[1,0.5],[0,1],[0.5,1],[1,1]];" parent="1" vertex="1">
          <mxGeometry x="1230" y="255" width="120" height="30" as="geometry" />
        </mxCell>
        <mxCell id="mO-xAQjlgf0KAZZDHfsd-20" style="edgeStyle=orthogonalEdgeStyle;rounded=0;orthogonalLoop=1;jettySize=auto;html=1;exitX=0.5;exitY=1;exitDx=0;exitDy=0;entryX=0.5;entryY=0;entryDx=0;entryDy=0;" parent="1" source="mO-xAQjlgf0KAZZDHfsd-13" target="mO-xAQjlgf0KAZZDHfsd-19" edge="1">
          <mxGeometry relative="1" as="geometry" />
        </mxCell>
        <mxCell id="mO-xAQjlgf0KAZZDHfsd-13" value="Appointment Schedule" style="text;html=1;align=center;verticalAlign=middle;whiteSpace=wrap;rounded=0;" parent="1" vertex="1">
          <mxGeometry x="1270" y="255" width="60" height="30" as="geometry" />
        </mxCell>
        <mxCell id="mO-xAQjlgf0KAZZDHfsd-14" value="" style="endArrow=classic;html=1;rounded=0;exitX=1.004;exitY=0.375;exitDx=0;exitDy=0;exitPerimeter=0;entryX=0;entryY=0.5;entryDx=0;entryDy=0;" parent="1" source="mO-xAQjlgf0KAZZDHfsd-6" target="mO-xAQjlgf0KAZZDHfsd-12" edge="1">
          <mxGeometry width="50" height="50" relative="1" as="geometry">
            <mxPoint x="1090" y="205" as="sourcePoint" />
            <mxPoint x="1140" y="155" as="targetPoint" />
          </mxGeometry>
        </mxCell>
        <mxCell id="mO-xAQjlgf0KAZZDHfsd-15" value="Receive Schedule" style="text;html=1;align=center;verticalAlign=middle;whiteSpace=wrap;rounded=0;" parent="1" vertex="1">
          <mxGeometry x="1150" y="235" width="60" height="30" as="geometry" />
        </mxCell>
        <mxCell id="9PFNCX79VaehlB443Bku-19" style="edgeStyle=orthogonalEdgeStyle;rounded=0;orthogonalLoop=1;jettySize=auto;html=1;exitX=1;exitY=0.75;exitDx=0;exitDy=0;entryX=1;entryY=0.5;entryDx=0;entryDy=0;" parent="1" source="mO-xAQjlgf0KAZZDHfsd-17" target="9PFNCX79VaehlB443Bku-15" edge="1">
          <mxGeometry relative="1" as="geometry">
            <Array as="points">
              <mxPoint x="1540" y="495" />
              <mxPoint x="1540" y="635" />
            </Array>
          </mxGeometry>
        </mxCell>
        <mxCell id="mO-xAQjlgf0KAZZDHfsd-17" value="Record Scheduled Appointment&amp;nbsp;" style="rounded=1;whiteSpace=wrap;html=1;" parent="1" vertex="1">
          <mxGeometry x="1245" y="405" width="110" height="120" as="geometry" />
        </mxCell>
        <mxCell id="mO-xAQjlgf0KAZZDHfsd-18" value="" style="endArrow=none;html=1;rounded=0;entryX=1;entryY=0.25;entryDx=0;entryDy=0;exitX=0;exitY=0.25;exitDx=0;exitDy=0;" parent="1" source="mO-xAQjlgf0KAZZDHfsd-17" target="mO-xAQjlgf0KAZZDHfsd-17" edge="1">
          <mxGeometry width="50" height="50" relative="1" as="geometry">
            <mxPoint x="1205" y="465" as="sourcePoint" />
            <mxPoint x="1245" y="415" as="targetPoint" />
          </mxGeometry>
        </mxCell>
        <mxCell id="mO-xAQjlgf0KAZZDHfsd-19" value="2.0" style="text;html=1;align=center;verticalAlign=middle;whiteSpace=wrap;rounded=0;" parent="1" vertex="1">
          <mxGeometry x="1270" y="405" width="60" height="30" as="geometry" />
        </mxCell>
        <mxCell id="mO-xAQjlgf0KAZZDHfsd-21" value="Received Schedule" style="text;html=1;align=center;verticalAlign=middle;whiteSpace=wrap;rounded=0;" parent="1" vertex="1">
          <mxGeometry x="1230" y="325" width="60" height="30" as="geometry" />
        </mxCell>
        <mxCell id="9PFNCX79VaehlB443Bku-2" value="Appointment Information" style="text;html=1;align=center;verticalAlign=middle;whiteSpace=wrap;rounded=0;" parent="1" vertex="1">
          <mxGeometry x="940" y="285" width="60" height="30" as="geometry" />
        </mxCell>
        <mxCell id="9PFNCX79VaehlB443Bku-3" value="A2" style="html=1;dashed=0;whiteSpace=wrap;shape=mxgraph.dfd.dataStoreID;align=left;spacingLeft=3;points=[[0,0],[0.5,0],[1,0],[0,0.5],[1,0.5],[0,1],[0.5,1],[1,1]];" parent="1" vertex="1">
          <mxGeometry x="1075" y="395" width="120" height="30" as="geometry" />
        </mxCell>
        <mxCell id="9PFNCX79VaehlB443Bku-4" value="Appointment Information" style="text;html=1;align=center;verticalAlign=middle;whiteSpace=wrap;rounded=0;" parent="1" vertex="1">
          <mxGeometry x="1115" y="395" width="60" height="30" as="geometry" />
        </mxCell>
        <mxCell id="9PFNCX79VaehlB443Bku-7" style="edgeStyle=orthogonalEdgeStyle;rounded=0;orthogonalLoop=1;jettySize=auto;html=1;exitX=0.25;exitY=1;exitDx=0;exitDy=0;entryX=0.314;entryY=0;entryDx=0;entryDy=0;entryPerimeter=0;" parent="1" source="mO-xAQjlgf0KAZZDHfsd-6" target="9PFNCX79VaehlB443Bku-3" edge="1">
          <mxGeometry relative="1" as="geometry" />
        </mxCell>
        <mxCell id="9PFNCX79VaehlB443Bku-8" value="Receive Appointment Information" style="text;html=1;align=center;verticalAlign=middle;whiteSpace=wrap;rounded=0;" parent="1" vertex="1">
          <mxGeometry x="1000" y="375" width="60" height="30" as="geometry" />
        </mxCell>
        <mxCell id="9PFNCX79VaehlB443Bku-17" style="edgeStyle=orthogonalEdgeStyle;rounded=0;orthogonalLoop=1;jettySize=auto;html=1;exitX=1;exitY=0.75;exitDx=0;exitDy=0;" parent="1" source="9PFNCX79VaehlB443Bku-9" target="9PFNCX79VaehlB443Bku-15" edge="1">
          <mxGeometry relative="1" as="geometry" />
        </mxCell>
        <mxCell id="9PFNCX79VaehlB443Bku-18" style="edgeStyle=orthogonalEdgeStyle;rounded=0;orthogonalLoop=1;jettySize=auto;html=1;exitX=1;exitY=0.25;exitDx=0;exitDy=0;entryX=0.5;entryY=1;entryDx=0;entryDy=0;" parent="1" source="9PFNCX79VaehlB443Bku-9" target="9PFNCX79VaehlB443Bku-16" edge="1">
          <mxGeometry relative="1" as="geometry" />
        </mxCell>
        <mxCell id="9PFNCX79VaehlB443Bku-9" value="Record Appointment Information" style="rounded=1;whiteSpace=wrap;html=1;" parent="1" vertex="1">
          <mxGeometry x="1015" y="545" width="110" height="120" as="geometry" />
        </mxCell>
        <mxCell id="9PFNCX79VaehlB443Bku-10" value="" style="endArrow=none;html=1;rounded=0;entryX=1;entryY=0.25;entryDx=0;entryDy=0;exitX=0;exitY=0.25;exitDx=0;exitDy=0;" parent="1" source="9PFNCX79VaehlB443Bku-9" target="9PFNCX79VaehlB443Bku-9" edge="1">
          <mxGeometry width="50" height="50" relative="1" as="geometry">
            <mxPoint x="975" y="605" as="sourcePoint" />
            <mxPoint x="1015" y="555" as="targetPoint" />
          </mxGeometry>
        </mxCell>
        <mxCell id="9PFNCX79VaehlB443Bku-11" value="3.0" style="text;html=1;align=center;verticalAlign=middle;whiteSpace=wrap;rounded=0;" parent="1" vertex="1">
          <mxGeometry x="1040" y="545" width="60" height="30" as="geometry" />
        </mxCell>
        <mxCell id="9PFNCX79VaehlB443Bku-13" style="edgeStyle=orthogonalEdgeStyle;rounded=0;orthogonalLoop=1;jettySize=auto;html=1;exitX=0.75;exitY=1;exitDx=0;exitDy=0;entryX=0.917;entryY=0;entryDx=0;entryDy=0;entryPerimeter=0;" parent="1" source="9PFNCX79VaehlB443Bku-4" target="9PFNCX79VaehlB443Bku-11" edge="1">
          <mxGeometry relative="1" as="geometry" />
        </mxCell>
        <mxCell id="9PFNCX79VaehlB443Bku-14" value="Received Appointment Information" style="text;html=1;align=center;verticalAlign=middle;whiteSpace=wrap;rounded=0;" parent="1" vertex="1">
          <mxGeometry x="1025" y="495" width="60" height="30" as="geometry" />
        </mxCell>
        <mxCell id="g_eFMP9g_AibDPPwKykl-4" style="edgeStyle=orthogonalEdgeStyle;rounded=0;orthogonalLoop=1;jettySize=auto;html=1;exitX=0.5;exitY=1;exitDx=0;exitDy=0;entryX=0.5;entryY=1;entryDx=0;entryDy=0;" parent="1" source="9PFNCX79VaehlB443Bku-15" target="9PFNCX79VaehlB443Bku-9" edge="1">
          <mxGeometry relative="1" as="geometry">
            <Array as="points">
              <mxPoint x="1300" y="705" />
              <mxPoint x="1070" y="705" />
            </Array>
          </mxGeometry>
        </mxCell>
        <mxCell id="g_eFMP9g_AibDPPwKykl-16" style="edgeStyle=orthogonalEdgeStyle;rounded=0;orthogonalLoop=1;jettySize=auto;html=1;exitX=0.5;exitY=0;exitDx=0;exitDy=0;entryX=0.5;entryY=1;entryDx=0;entryDy=0;" parent="1" source="9PFNCX79VaehlB443Bku-15" target="mO-xAQjlgf0KAZZDHfsd-17" edge="1">
          <mxGeometry relative="1" as="geometry" />
        </mxCell>
        <mxCell id="g_eFMP9g_AibDPPwKykl-21" style="edgeStyle=orthogonalEdgeStyle;rounded=0;orthogonalLoop=1;jettySize=auto;html=1;exitX=0.75;exitY=1;exitDx=0;exitDy=0;entryX=0;entryY=0.75;entryDx=0;entryDy=0;" parent="1" source="9PFNCX79VaehlB443Bku-15" target="g_eFMP9g_AibDPPwKykl-18" edge="1">
          <mxGeometry relative="1" as="geometry" />
        </mxCell>
        <mxCell id="9PFNCX79VaehlB443Bku-15" value="Proprieter" style="rounded=0;whiteSpace=wrap;html=1;" parent="1" vertex="1">
          <mxGeometry x="1240" y="605" width="120" height="60" as="geometry" />
        </mxCell>
        <mxCell id="g_eFMP9g_AibDPPwKykl-6" style="edgeStyle=orthogonalEdgeStyle;rounded=0;orthogonalLoop=1;jettySize=auto;html=1;exitX=0.75;exitY=1;exitDx=0;exitDy=0;entryX=0.995;entryY=0.418;entryDx=0;entryDy=0;entryPerimeter=0;" parent="1" source="9PFNCX79VaehlB443Bku-16" target="9PFNCX79VaehlB443Bku-9" edge="1">
          <mxGeometry relative="1" as="geometry">
            <Array as="points">
              <mxPoint x="1580" y="595" />
              <mxPoint x="1125" y="595" />
            </Array>
          </mxGeometry>
        </mxCell>
        <mxCell id="g_eFMP9g_AibDPPwKykl-36" style="edgeStyle=orthogonalEdgeStyle;rounded=0;orthogonalLoop=1;jettySize=auto;html=1;exitX=1;exitY=0.25;exitDx=0;exitDy=0;entryX=0.25;entryY=0;entryDx=0;entryDy=0;" parent="1" source="9PFNCX79VaehlB443Bku-16" target="g_eFMP9g_AibDPPwKykl-27" edge="1">
          <mxGeometry relative="1" as="geometry" />
        </mxCell>
        <mxCell id="9PFNCX79VaehlB443Bku-16" value="Technician" style="rounded=0;whiteSpace=wrap;html=1;" parent="1" vertex="1">
          <mxGeometry x="1490" y="345" width="120" height="60" as="geometry" />
        </mxCell>
        <mxCell id="9PFNCX79VaehlB443Bku-22" value="Received Schedule" style="text;html=1;align=center;verticalAlign=middle;whiteSpace=wrap;rounded=0;" parent="1" vertex="1">
          <mxGeometry x="1440" y="505" width="60" height="30" as="geometry" />
        </mxCell>
        <mxCell id="9PFNCX79VaehlB443Bku-23" value="Received Appointment Information" style="text;html=1;align=center;verticalAlign=middle;whiteSpace=wrap;rounded=0;" parent="1" vertex="1">
          <mxGeometry x="1140" y="535" width="60" height="30" as="geometry" />
        </mxCell>
        <mxCell id="9PFNCX79VaehlB443Bku-24" value="Received Appointment Information" style="text;html=1;align=center;verticalAlign=middle;whiteSpace=wrap;rounded=0;" parent="1" vertex="1">
          <mxGeometry x="1150" y="645" width="60" height="30" as="geometry" />
        </mxCell>
        <mxCell id="g_eFMP9g_AibDPPwKykl-5" value="Request Appointment Information" style="text;html=1;align=center;verticalAlign=middle;whiteSpace=wrap;rounded=0;" parent="1" vertex="1">
          <mxGeometry x="1150" y="715" width="60" height="30" as="geometry" />
        </mxCell>
        <mxCell id="g_eFMP9g_AibDPPwKykl-7" value="Request Appointment Information" style="text;html=1;align=center;verticalAlign=middle;whiteSpace=wrap;rounded=0;" parent="1" vertex="1">
          <mxGeometry x="1590" y="475" width="60" height="30" as="geometry" />
        </mxCell>
        <mxCell id="g_eFMP9g_AibDPPwKykl-17" value="Request Schedule" style="text;html=1;align=center;verticalAlign=middle;whiteSpace=wrap;rounded=0;" parent="1" vertex="1">
          <mxGeometry x="1300" y="535" width="60" height="30" as="geometry" />
        </mxCell>
        <mxCell id="g_eFMP9g_AibDPPwKykl-31" style="edgeStyle=orthogonalEdgeStyle;rounded=0;orthogonalLoop=1;jettySize=auto;html=1;exitX=0.5;exitY=1;exitDx=0;exitDy=0;entryX=0.75;entryY=1;entryDx=0;entryDy=0;" parent="1" source="g_eFMP9g_AibDPPwKykl-18" target="mO-xAQjlgf0KAZZDHfsd-9" edge="1">
          <mxGeometry relative="1" as="geometry" />
        </mxCell>
        <mxCell id="g_eFMP9g_AibDPPwKykl-18" value="Give Scheduled Appointment&amp;nbsp;" style="rounded=1;whiteSpace=wrap;html=1;" parent="1" vertex="1">
          <mxGeometry x="1580" y="665" width="110" height="120" as="geometry" />
        </mxCell>
        <mxCell id="g_eFMP9g_AibDPPwKykl-19" value="" style="endArrow=none;html=1;rounded=0;entryX=1;entryY=0.25;entryDx=0;entryDy=0;exitX=0;exitY=0.25;exitDx=0;exitDy=0;" parent="1" source="g_eFMP9g_AibDPPwKykl-18" target="g_eFMP9g_AibDPPwKykl-18" edge="1">
          <mxGeometry width="50" height="50" relative="1" as="geometry">
            <mxPoint x="1540" y="725" as="sourcePoint" />
            <mxPoint x="1580" y="675" as="targetPoint" />
          </mxGeometry>
        </mxCell>
        <mxCell id="g_eFMP9g_AibDPPwKykl-23" style="edgeStyle=orthogonalEdgeStyle;rounded=0;orthogonalLoop=1;jettySize=auto;html=1;exitX=0.5;exitY=0;exitDx=0;exitDy=0;entryX=1;entryY=0.5;entryDx=0;entryDy=0;" parent="1" source="g_eFMP9g_AibDPPwKykl-20" target="9PFNCX79VaehlB443Bku-16" edge="1">
          <mxGeometry relative="1" as="geometry">
            <Array as="points">
              <mxPoint x="1660" y="665" />
              <mxPoint x="1660" y="375" />
            </Array>
          </mxGeometry>
        </mxCell>
        <mxCell id="g_eFMP9g_AibDPPwKykl-20" value="4.0" style="text;html=1;align=center;verticalAlign=middle;whiteSpace=wrap;rounded=0;" parent="1" vertex="1">
          <mxGeometry x="1605" y="665" width="60" height="30" as="geometry" />
        </mxCell>
        <mxCell id="g_eFMP9g_AibDPPwKykl-22" value="Receive Schedule" style="text;html=1;align=center;verticalAlign=middle;whiteSpace=wrap;rounded=0;" parent="1" vertex="1">
          <mxGeometry x="1450" y="715" width="60" height="30" as="geometry" />
        </mxCell>
        <mxCell id="g_eFMP9g_AibDPPwKykl-24" value="Received Schedule" style="text;html=1;align=center;verticalAlign=middle;whiteSpace=wrap;rounded=0;" parent="1" vertex="1">
          <mxGeometry x="1660" y="545" width="60" height="30" as="geometry" />
        </mxCell>
        <mxCell id="g_eFMP9g_AibDPPwKykl-32" style="edgeStyle=orthogonalEdgeStyle;rounded=0;orthogonalLoop=1;jettySize=auto;html=1;exitX=0.5;exitY=1;exitDx=0;exitDy=0;entryX=0.25;entryY=1;entryDx=0;entryDy=0;" parent="1" source="g_eFMP9g_AibDPPwKykl-25" target="mO-xAQjlgf0KAZZDHfsd-9" edge="1">
          <mxGeometry relative="1" as="geometry">
            <Array as="points">
              <mxPoint x="1850" y="845" />
              <mxPoint x="830" y="845" />
            </Array>
          </mxGeometry>
        </mxCell>
        <mxCell id="g_eFMP9g_AibDPPwKykl-25" value="Give Appointment Information" style="rounded=1;whiteSpace=wrap;html=1;" parent="1" vertex="1">
          <mxGeometry x="1795" y="475" width="110" height="120" as="geometry" />
        </mxCell>
        <mxCell id="g_eFMP9g_AibDPPwKykl-26" value="" style="endArrow=none;html=1;rounded=0;entryX=1;entryY=0.25;entryDx=0;entryDy=0;exitX=0;exitY=0.25;exitDx=0;exitDy=0;" parent="1" source="g_eFMP9g_AibDPPwKykl-25" target="g_eFMP9g_AibDPPwKykl-25" edge="1">
          <mxGeometry width="50" height="50" relative="1" as="geometry">
            <mxPoint x="1755" y="535" as="sourcePoint" />
            <mxPoint x="1795" y="485" as="targetPoint" />
          </mxGeometry>
        </mxCell>
        <mxCell id="g_eFMP9g_AibDPPwKykl-35" style="edgeStyle=orthogonalEdgeStyle;rounded=0;orthogonalLoop=1;jettySize=auto;html=1;exitX=0.5;exitY=0;exitDx=0;exitDy=0;entryX=0.75;entryY=0;entryDx=0;entryDy=0;" parent="1" source="g_eFMP9g_AibDPPwKykl-27" target="9PFNCX79VaehlB443Bku-16" edge="1">
          <mxGeometry relative="1" as="geometry" />
        </mxCell>
        <mxCell id="g_eFMP9g_AibDPPwKykl-27" value="5.0" style="text;html=1;align=center;verticalAlign=middle;whiteSpace=wrap;rounded=0;" parent="1" vertex="1">
          <mxGeometry x="1820" y="475" width="60" height="30" as="geometry" />
        </mxCell>
        <mxCell id="g_eFMP9g_AibDPPwKykl-33" value="Received Schedule" style="text;html=1;align=center;verticalAlign=middle;whiteSpace=wrap;rounded=0;" parent="1" vertex="1">
          <mxGeometry x="900" y="385" width="60" height="30" as="geometry" />
        </mxCell>
        <mxCell id="g_eFMP9g_AibDPPwKykl-34" value="Received Appointment Information" style="text;html=1;align=center;verticalAlign=middle;whiteSpace=wrap;rounded=0;" parent="1" vertex="1">
          <mxGeometry x="750" y="375" width="60" height="30" as="geometry" />
        </mxCell>
        <mxCell id="g_eFMP9g_AibDPPwKykl-37" value="Request Appointment Information" style="text;html=1;align=center;verticalAlign=middle;whiteSpace=wrap;rounded=0;" parent="1" vertex="1">
          <mxGeometry x="1770" y="415" width="60" height="30" as="geometry" />
        </mxCell>
        <mxCell id="ZKUz5TIwKYl2EOkEbX33-6" style="edgeStyle=orthogonalEdgeStyle;rounded=0;orthogonalLoop=1;jettySize=auto;html=1;exitX=0;exitY=0.5;exitDx=0;exitDy=0;entryX=1;entryY=0.5;entryDx=0;entryDy=0;" edge="1" parent="1" source="g_eFMP9g_AibDPPwKykl-38" target="ZKUz5TIwKYl2EOkEbX33-3">
          <mxGeometry relative="1" as="geometry" />
        </mxCell>
        <mxCell id="g_eFMP9g_AibDPPwKykl-38" value="A3" style="html=1;dashed=0;whiteSpace=wrap;shape=mxgraph.dfd.dataStoreID;align=left;spacingLeft=3;points=[[0,0],[0.5,0],[1,0],[0,0.5],[1,0.5],[0,1],[0.5,1],[1,1]];" parent="1" vertex="1">
          <mxGeometry x="1015" y="125" width="120" height="30" as="geometry" />
        </mxCell>
        <mxCell id="g_eFMP9g_AibDPPwKykl-39" value="Appointment History" style="text;html=1;align=center;verticalAlign=middle;whiteSpace=wrap;rounded=0;" parent="1" vertex="1">
          <mxGeometry x="1055" y="125" width="60" height="30" as="geometry" />
        </mxCell>
        <mxCell id="ZKUz5TIwKYl2EOkEbX33-1" style="edgeStyle=orthogonalEdgeStyle;rounded=0;orthogonalLoop=1;jettySize=auto;html=1;exitX=0.25;exitY=0;exitDx=0;exitDy=0;entryX=0.094;entryY=1.035;entryDx=0;entryDy=0;entryPerimeter=0;" edge="1" parent="1" source="mO-xAQjlgf0KAZZDHfsd-8" target="g_eFMP9g_AibDPPwKykl-39">
          <mxGeometry relative="1" as="geometry" />
        </mxCell>
        <mxCell id="ZKUz5TIwKYl2EOkEbX33-2" value="Receive Appointment" style="text;html=1;align=center;verticalAlign=middle;whiteSpace=wrap;rounded=0;" vertex="1" parent="1">
          <mxGeometry x="1065" y="175" width="60" height="30" as="geometry" />
        </mxCell>
        <mxCell id="ZKUz5TIwKYl2EOkEbX33-3" value="Manage Appointment history" style="rounded=1;whiteSpace=wrap;html=1;" vertex="1" parent="1">
          <mxGeometry x="785" y="80" width="110" height="120" as="geometry" />
        </mxCell>
        <mxCell id="ZKUz5TIwKYl2EOkEbX33-4" value="" style="endArrow=none;html=1;rounded=0;entryX=1;entryY=0.25;entryDx=0;entryDy=0;exitX=0;exitY=0.25;exitDx=0;exitDy=0;" edge="1" parent="1" source="ZKUz5TIwKYl2EOkEbX33-3" target="ZKUz5TIwKYl2EOkEbX33-3">
          <mxGeometry width="50" height="50" relative="1" as="geometry">
            <mxPoint x="745" y="140" as="sourcePoint" />
            <mxPoint x="785" y="90" as="targetPoint" />
          </mxGeometry>
        </mxCell>
        <mxCell id="ZKUz5TIwKYl2EOkEbX33-5" value="6.0" style="text;html=1;align=center;verticalAlign=middle;whiteSpace=wrap;rounded=0;" vertex="1" parent="1">
          <mxGeometry x="810" y="80" width="60" height="30" as="geometry" />
        </mxCell>
        <mxCell id="ZKUz5TIwKYl2EOkEbX33-7" style="edgeStyle=orthogonalEdgeStyle;rounded=0;orthogonalLoop=1;jettySize=auto;html=1;exitX=0.5;exitY=1;exitDx=0;exitDy=0;entryX=0.334;entryY=0.009;entryDx=0;entryDy=0;entryPerimeter=0;" edge="1" parent="1" source="ZKUz5TIwKYl2EOkEbX33-3" target="mO-xAQjlgf0KAZZDHfsd-9">
          <mxGeometry relative="1" as="geometry" />
        </mxCell>
        <mxCell id="ZKUz5TIwKYl2EOkEbX33-8" value="Receive Appointment" style="text;html=1;align=center;verticalAlign=middle;whiteSpace=wrap;rounded=0;" vertex="1" parent="1">
          <mxGeometry x="930" y="110" width="60" height="30" as="geometry" />
        </mxCell>
        <mxCell id="ZKUz5TIwKYl2EOkEbX33-9" value="Received Appointment" style="text;html=1;align=center;verticalAlign=middle;whiteSpace=wrap;rounded=0;" vertex="1" parent="1">
          <mxGeometry x="850" y="205" width="60" height="30" as="geometry" />
        </mxCell>
      </root>
    </mxGraphModel>
  </diagram>
</mxfile>
